<svg xmlns="http://www.w3.org/2000/svg" width="400" height="400" viewBox="0 0 400 400">
<path fill="#3d4d82" d="m 127.86907,400.00001 c -0.28985,0 -0.58503,-0.0245 -0.88234,-0.0757 -2.80367,-0.48486 -4.6845,-3.14894 -4.19964,-5.95474 l 7.11734,-41.2292 c 0.48379,-2.80474 3.14147,-4.68345 5.95367,-4.20072 2.80367,0.48487 4.68451,3.14894 4.19965,5.95368 l -7.11734,41.23027 c -0.43265,2.50742 -2.60973,4.27637 -5.07134,4.27637 z" />
<path fill="#222732" d="m 157.18028,169.3664 -37.22419,184.38512 c -1.63361,8.08919 3.59943,15.97222 11.68863,17.60371 0.99743,0.20139 1.99066,0.29762 2.9721,0.29762 6.96496,0 13.20046,-4.89764 14.6316,-11.98834 L 184.59526,184.587 a 61.926926,61.926926 0 0 1 -1.16136,-0.26016 61.926926,61.926926 0 0 1 -5.87553,-1.95227 61.926926,61.926926 0 0 1 -5.65076,-2.52879 61.926926,61.926926 0 0 1 -5.36769,-3.08033 61.926926,61.926926 0 0 1 -5.03676,-3.60066 61.926926,61.926926 0 0 1 -4.32288,-3.79839 z" />
<path fill="#3d4d82" d="m 272.12867,400.00001 c -2.46267,0 -4.63975,-1.76895 -5.07133,-4.27744 L 259.94,354.4923 c -0.4838,-2.80474 1.39704,-5.46881 4.19964,-5.95367 2.81646,-0.47953 5.47095,1.39704 5.95474,4.20071 l 7.11628,41.22921 c 0.48486,2.8058 -1.39598,5.46987 -4.19965,5.95473 -0.29625,0.0522 -0.59036,0.0767 -0.88234,0.0767 z" />
<path fill="#222732" d="m 215.39861,184.55787 35.35102,175.10664 c 1.43007,7.09177 7.66349,11.98834 14.62951,11.98834 0.97932,0 1.97675,-0.0962 2.97418,-0.29762 8.08813,-1.63255 13.32433,-9.51452 11.69072,-17.60371 L 242.80736,169.30604 a 61.926926,61.926926 0 0 1 -2.91383,2.71402 61.926926,61.926926 0 0 1 -4.92854,3.74636 61.926926,61.926926 0 0 1 -5.27611,3.23644 61.926926,61.926926 0 0 1 -5.57375,2.69113 61.926926,61.926926 0 0 1 -5.81517,2.12292 61.926926,61.926926 0 0 1 -2.90135,0.74096 z" />
<rect fill="#3d4d82" height="28.510916" width="17.862082" y="43.452103" x="191.06836" />
<rect fill="#222732" height="48.433926" width="35.544071" y="0" x="182.22791" />
<path fill="#fd7000" d="m 199.99902,62.728521 a 61.926926,61.926926 0 0 0 -61.92722,61.927229 61.926926,61.926926 0 0 0 61.92722,61.92723 61.926926,61.926926 0 0 0 61.92723,-61.92723 61.926926,61.926926 0 0 0 -61.92723,-61.927229 z m 0,27.402497 a 34.525328,34.525328 0 0 1 34.52473,34.524732 34.525328,34.525328 0 0 1 -34.52473,34.52681 34.525328,34.525328 0 0 1 -34.52473,-34.52681 34.525328,34.525328 0 0 1 34.52473,-34.524732 z" />
</svg>