<svg xmlns="http://www.w3.org/2000/svg" width="16" height="16" viewBox="0 0 58 58">
<path d="M 29.000612,0 C 12.983245,0 0,12.98161 0,28.99884 0,45.01961 12.983245,58 29.000612,58 45.016755,58 58,45.01961 58,28.99884 58,12.98161 45.01662,0 29.000612,0 Z m -6.8e-4,13.52441 c 2.010922,0 3.641219,1.63043 3.641219,3.64122 0,2.01079 -1.630977,3.64068 -3.641219,3.64068 -2.010242,0 -3.641219,-1.63044 -3.641219,-3.64068 0,-2.01079 1.630433,-3.64122 3.641219,-3.64122 z m 6.371929,30.95172 H 22.628139 v -5.46237 h 2.730574 V 28.0901 h -2.730574 v -5.46196 h 10.013692 v 5.46183 10.92365 h 2.730574 V 44.476 h -5.44e-4 z" fill="#fd7000" />
<polygon points="394.466,325.918 325.935,394.449 419.55,419.529 " transform="scale(0.13593739)" fill="#fd7000"/>
</svg>