<svg xmlns="http://www.w3.org/2000/svg" width="56" height="56" viewBox="0 0 56 56">
<path fill="#ff9c4dff" d="M 36.985,0 H 7.963 C 7.155,0 6.5,0.655 6.5,1.926 V 55 c 0,0.345 0.655,1 1.463,1 H 48.037 C 48.845,56 49.5,55.345 49.5,55 V 12.978 c 0,-0.696 -0.093,-0.92 -0.257,-1.085 L 37.607,0.257 C 37.442,0.093 37.218,0 36.985,0 Z"/>
<polygon fill="#fd7000ff" points="37.5,0.151 37.5,12 49.349,12"/>
<rect fill="#1d3272ff" width="43" height="24" x="6.518" y="16" />
<g fill="#eee">
	<path d="m 17,31.386667 q 0,-1 -0.76,-1.546667 -0.746666,-0.56 -2.626666,-0.96 -1.866667,-0.4 -2.973333,-0.96 -1.0933337,-0.56 -1.626667,-1.333333 -0.52,-0.773333 -0.52,-1.84 0,-1.773333 1.4933332,-3 Q 11.493334,20.52 13.826667,20.52 16.28,20.52 17.8,21.786667 q 1.533333,1.266667 1.533333,3.24 h -2.479999 q 0,-1.013333 -0.866667,-1.746667 -0.853333,-0.733333 -2.16,-0.733333 -1.346667,0 -2.106666,0.586667 -0.76,0.586666 -0.76,1.533333 0,0.893333 0.706666,1.346667 0.706667,0.453333 2.546667,0.866666 1.853333,0.413333 3,0.986667 1.146666,0.573333 1.693333,1.386666 0.56,0.8 0.56,1.96 0,1.933334 -1.546667,3.106667 -1.546666,1.16 -4.013333,1.16 -1.733333,0 -3.066666,-0.613334 Q 9.5066673,34.253333 8.7466673,33.16 8.0000007,32.053333 8.0000007,30.773333 h 2.4666663 q 0.06667,1.24 0.986667,1.973334 0.933333,0.72 2.453333,0.72 1.4,0 2.24,-0.56 Q 17,32.333333 17,31.386667 Z"/>
	<path d="m 28.666666,35.48 q -2.933333,0 -4.773333,-1.92 -1.84,-1.933333 -1.84,-5.16 v -0.453333 q 0,-2.146667 0.813333,-3.826667 0.826667,-1.693333 2.293334,-2.64 1.479999,-0.96 3.199999,-0.96 2.813334,0 4.373333,1.853334 1.56,1.853333 1.56,5.306666 v 1.026667 H 24.52 Q 24.573333,30.84 25.759999,32.16 q 1.2,1.306667 3.04,1.306667 1.306667,0 2.213334,-0.533334 Q 31.919999,32.4 32.599999,31.52 l 1.506667,1.173333 Q 32.293333,35.48 28.666666,35.48 Z M 28.359999,22.546667 q -1.493333,0 -2.506666,1.093333 Q 24.84,24.72 24.6,26.68 h 7.226666 v -0.186666 q -0.106667,-1.88 -1.013333,-2.906667 -0.906667,-1.04 -2.453334,-1.04 z" />
	<path d="m 45.533333,31.386667 q 0,-1 -0.76,-1.546667 Q 44.026666,29.28 42.146667,28.88 40.28,28.48 39.173333,27.92 38.08,27.36 37.546667,26.586667 q -0.52,-0.773333 -0.52,-1.84 0,-1.773333 1.493333,-3 Q 40.026667,20.52 42.36,20.52 q 2.453333,0 3.973333,1.266667 1.533333,1.266667 1.533333,3.24 h -2.48 q 0,-1.013333 -0.866666,-1.746667 -0.853333,-0.733333 -2.16,-0.733333 -1.346667,0 -2.106667,0.586667 -0.76,0.586666 -0.76,1.533333 0,0.893333 0.706667,1.346667 Q 40.906667,26.466667 42.746667,26.88 44.6,27.293333 45.746666,27.866667 46.893333,28.44 47.44,29.253333 q 0.56,0.8 0.56,1.96 0,1.933334 -1.546667,3.106667 -1.546667,1.16 -4.013333,1.16 -1.733333,0 -3.066667,-0.613334 Q 38.04,34.253333 37.28,33.16 36.533333,32.053333 36.533333,30.773333 H 39 q 0.06667,1.24 0.986667,1.973334 0.933333,0.72 2.453333,0.72 1.4,0 2.24,-0.56 0.853333,-0.573334 0.853333,-1.52 z" />
</g>
</svg>
