<svg xmlns="http://www.w3.org/2000/svg" width="32" height="32" viewBox="0 0 58 58">
<rect width="58" height="44.6768" x="0" y="10.568241" ry="1.781728" fill="#ff9c4d"/>
<path d="M 1.930798,2.7549593 C 0.86451,2.7549593 0,3.6183443 0,4.6857543 V 12.349711 C 0,11.856156 0.199117,11.412214 0.5212,11.090158 0.843246,10.768117 1.287203,10.568952 1.780749,10.568952 H 56.08782 c -0.0079,-8.1e-5 -0.01238,-0.0074 -0.01807,-0.0074 H 27.884064 l -5.57521,-7.8065667 z" fill="#fd7000"/>
<path d="m 27.499999,19.318905 10.000001,-7.5 c 0.375,-0.285 0.885,-0.33 1.307501,-0.11745 0.424999,0.212505 0.692499,0.645 0.692499,1.1175 v 3.75 h 3.75 c 7.5825,0 13.75,6.167505 13.75,13.750005 0,0.57999 -0.4,1.084995 -0.9625,1.21749 -0.09499,0.0225 -0.1925,0.03255 -0.287499,0.03255 -0.465,0 -0.902501,-0.259995 -1.1175,-0.69 L 54.3375,30.291495 C 52.420001,26.454 48.565001,24.069 44.275001,24.069 H 39.5 v 3.75 c 0,0.4725 -0.2675,0.904995 -0.69,1.1175 -0.422499,0.212505 -0.932499,0.167505 -1.31,-0.11745 l -10,-7.5 C 27.185,21.084045 27,20.71155 27,20.319045 c 0,-0.392505 0.185,-0.765 0.5,-1.000005 z" fill="#1d3272"/>
</svg>
