<svg xmlns="http://www.w3.org/2000/svg" width="56" height="56" viewBox="0 0 56 56">
<path fill="#ff9c4dff" d="M 36.985,0 H 7.963 C 7.155,0 6.5,0.655 6.5,1.926 V 55 c 0,0.345 0.655,1 1.463,1 H 48.037 C 48.845,56 49.5,55.345 49.5,55 V 12.978 c 0,-0.696 -0.093,-0.92 -0.257,-1.085 L 37.607,0.257 C 37.442,0.093 37.218,0 36.985,0 Z"/>
<polygon fill="#fd7000ff" points="37.5,0.151 37.5,12 49.349,12"/>
<rect fill="#1d3272ff" width="43" height="24" x="6.518" y="16" />
<g fill="#eee">
	<path d="m 20.731062,31.328699 q 0,3.446838 -1.584434,5.545517 -1.584433,2.084781 -4.252953,2.084781 -2.849201,0 -4.405837,-2.015288 l -0.125087,1.737317 H 7.9999992 V 17.332869 h 2.5712298 v 7.963863 q 1.556637,-1.931897 4.294649,-1.931897 2.738012,0 4.294649,2.070883 1.570535,2.070882 1.570535,5.670604 z m -2.57123,-0.29187 q 0,-2.626824 -1.014593,-4.058373 -1.014594,-1.43155 -2.918694,-1.43155 -2.543433,0 -3.655316,2.362752 v 6.504517 q 1.181376,2.362751 3.683113,2.362751 1.848506,0 2.876998,-1.431549 1.028492,-1.43155 1.028492,-4.308548 z"/>
    <path d="m 23.330089,31.036829 q 0,-3.460736 1.640028,-5.559416 1.640028,-2.112578 4.294649,-2.112578 2.640723,0 4.183461,1.80681 v -7.838776 h 2.57123 v 21.348157 h -2.362752 l -0.125087,-1.61223 q -1.542738,1.890201 -4.294649,1.890201 -2.612926,0 -4.266852,-2.140375 -1.640028,-2.140375 -1.640028,-5.587213 z m 2.57123,0.29187 q 0,2.557331 1.056289,4.002779 1.056289,1.445448 2.918694,1.445448 2.446143,0 3.571925,-2.195969 v -6.907574 q -1.153579,-2.126477 -3.544128,-2.126477 -1.890202,0 -2.946491,1.459347 -1.056289,1.459346 -1.056289,4.322446 z"/>
    <path d="M 41.287006,38.681026 V 25.630297 h -2.37665 v -1.987491 h 2.37665 v -1.542738 q 0,-2.418346 1.292564,-3.738707 1.292564,-1.320362 3.655316,-1.320362 0.889507,0 1.765115,0.236275 l -0.138985,2.084781 q -0.653232,-0.125086 -1.389854,-0.125086 -1.250869,0 -1.931898,0.736622 -0.681028,0.722724 -0.681028,2.084781 v 1.584434 h 3.210563 v 1.987491 h -3.210563 v 13.050729 z"/>
</g>
</svg>