<svg xmlns="http://www.w3.org/2000/svg" width="56" height="56" viewBox="0 0 56 56">
<path fill="#ff9c4dff" d="M 36.985,0 H 7.963 C 7.155,0 6.5,0.655 6.5,1.926 V 55 c 0,0.345 0.655,1 1.463,1 H 48.037 C 48.845,56 49.5,55.345 49.5,55 V 12.978 c 0,-0.696 -0.093,-0.92 -0.257,-1.085 L 37.607,0.257 C 37.442,0.093 37.218,0 36.985,0 Z"/>
<polygon fill="#fd7000ff" points="37.5,0.151 37.5,12 49.349,12"/>
<rect fill="#1d3272ff" width="43" height="24" x="6.518" y="16" />
<g fill="#eee">
	<path d="m 14.448161,33.484949 q 1.324414,0 2.314381,-0.802676 0.989966,-0.802675 1.09699,-2.006689 h 2.341137 q -0.06689,1.244148 -0.856187,2.367893 -0.789298,1.123746 -2.113713,1.792642 -1.311037,0.668897 -2.782608,0.668897 -2.956522,0 -4.7090305,-1.966555 -1.7391304,-1.979933 -1.7391304,-5.404683 v -0.414715 q 0,-2.113713 0.7759197,-3.759198 0.7759197,-1.645485 2.2207362,-2.555184 1.458194,-0.909699 3.438127,-0.909699 2.434782,0 4.040133,1.458194 1.618729,1.458194 1.725753,3.785954 h -2.341137 q -0.107024,-1.404683 -1.070234,-2.301004 -0.949833,-0.909699 -2.354515,-0.909699 -1.886288,0 -2.929766,1.364549 -1.030101,1.35117 -1.030101,3.919732 v 0.468228 q 0,2.501672 1.030101,3.852842 1.0301,1.351171 2.943144,1.351171 z"/>
	<path d="m 31.411371,31.397992 q 0,-1.003344 -0.762542,-1.551839 -0.749164,-0.561873 -2.635451,-0.963211 -1.87291,-0.401338 -2.983278,-0.96321 -1.09699,-0.561873 -1.632107,-1.337793 -0.521739,-0.77592 -0.521739,-1.846154 0,-1.779264 1.498328,-3.010033 1.511705,-1.23077 3.852843,-1.23077 2.461538,0 3.986622,1.270903 1.538461,1.270903 1.538461,3.250837 h -2.488294 q 0,-1.016723 -0.869565,-1.752509 -0.856188,-0.735786 -2.167224,-0.735786 -1.351171,0 -2.113713,0.588629 -0.762542,0.588629 -0.762542,1.538462 0,0.896321 0.709031,1.35117 0.70903,0.45485 2.555183,0.869565 1.859532,0.414716 3.010034,0.989967 1.150502,0.575251 1.698996,1.391304 0.561873,0.802676 0.561873,1.966555 0,1.9398 -1.551839,3.117057 -1.55184,1.16388 -4.026756,1.16388 -1.73913,0 -3.076923,-0.615385 -1.337793,-0.615384 -2.100334,-1.712374 -0.749164,-1.110368 -0.749164,-2.394649 h 2.474916 q 0.06689,1.244147 0.989967,1.979933 0.936455,0.722408 2.461538,0.722408 1.404682,0 2.247492,-0.561873 0.856187,-0.575251 0.856187,-1.525084 z"/>
	<path d="M 41.886288,31.879598 45.471572,20.762541 H 48 L 42.809365,35.237457 H 40.923077 L 35.67893,20.762541 h 2.528428 z"/>
</g>
</svg>