<svg xmlns="http://www.w3.org/2000/svg" width="100" height="100" viewBox="0 0 100 100">
<defs>
	<marker viewBox="0 0 32 32" refX="16" refY="16" id="DotL" markerWidth="16" markerHeight="16">
		<circle cx="16" cy="16" r="4" style="fill:#fd7000;stroke:#222732;stroke-width:1" />
	</marker>
</defs>
<polygon style="stroke-width:4;stroke-linejoin:round;stroke:#222732;marker-start:url(#DotL);marker-end:url(#DotL);marker-mid:url(#DotL)" points="9,9 91,9 91,91 9,91" fill="#6581d899"/>
<g fill="#222732">
	<path d="M 28.975652,18.154567 H 39.796956 V 45.053045 H 33.922608 V 23.101306 h -5.256087 v -4.946739 z" />
	<path d="m 67.313912,29.285001 c 0.618261,-0.927608 0.927608,-1.855 0.927608,-2.782608 0,-0.927609 -0.30913,-1.54587 -0.927608,-2.164348 -0.618479,-0.618478 -1.236739,-0.927609 -2.164348,-0.927609 -1.54587,0 -3.40087,1.236739 -4.946957,3.710218 l -4.946956,-2.782609 c 1.236739,-1.855 2.782609,-3.40087 4.019348,-4.328478 1.545869,-0.927609 3.400869,-1.54587 5.874348,-1.54587 2.473478,0 4.328478,0.618261 6.183478,2.164348 1.855,1.54587 2.782608,3.40087 2.782608,6.183478 0,1.236739 -0.30913,2.782609 -0.927608,4.019348 -0.618261,1.236739 -2.164348,2.782609 -4.019348,4.946956 l -4.946957,4.946957 h 10.512174 v 5.256087 h -19.16913 v -4.328479 l 8.038696,-8.038695 c 1.855652,-2.164565 3.092391,-3.401304 3.710652,-4.328696 z" />
	<path d="M 26.502391,59.893696 V 54.63761 h 16.386521 v 4.019347 l -5.565217,6.183478 c 2.164348,0.309131 3.710217,1.23674 4.946956,2.782609 1.236739,1.54587 1.855,3.091739 1.855,4.946957 0,2.782608 -0.927608,4.946956 -2.782608,6.801956 -1.855,1.545869 -4.328479,2.473478 -7.420218,2.473478 -3.091739,0 -5.874347,-0.927609 -8.966086,-3.091739 l 2.473478,-4.637609 c 2.473478,1.855 4.946956,2.782609 6.801956,2.782609 1.236739,0 2.164348,-0.30913 3.091739,-0.927609 0.927609,-0.61826 1.236739,-1.545869 1.236739,-2.473478 0,-1.236739 -0.30913,-1.855 -1.236739,-2.782608 -0.927608,-0.618261 -2.164347,-0.927609 -3.710217,-0.927609 -0.927609,0 -2.164348,0.30913 -3.710217,0.618261 v -4.328478 l 5.256087,-6.183479 z" />
	<path d="m 66.077173,70.405653 v -4.946957 h 5.874347 v 4.637609 h 3.091739 v 5.256087 H 71.95152 v 6.492826 H 66.077173 V 75.352392 H 55.255868 v -4.637609 l 9.584565,-16.077391 h 6.801957 l -9.275435,15.458913 h 3.710218 z" />
</g>
</svg>