<svg xmlns="http://www.w3.org/2000/svg" width="512" height="512" viewBox="0 0 512 512">
  <path fill="#fd7000" d="M 24.339,395.683 395.682,24.339 487.66,116.317 116.317,487.661 Z"/>
  <path fill="#222732" d="M 509.047,109.188 402.812,2.953 C 400.92,1.063 398.357,0 395.683,0 c -2.674,0 -5.237,1.063 -7.128,2.953 l -70.108,70.108 -10e-4,10e-4 c 0,0 0,0.001 -0.001,0.001 l -70.106,70.106 c 0,0 -0.001,10e-4 -0.002,0.002 0,0 -10e-4,0.001 -0.002,0.002 L 38.006,353.502 c 0,0 0,10e-4 -10e-4,10e-4 L 2.952,388.555 C 1.063,390.446 0,393.01 0,395.683 c 0,2.673 1.063,5.238 2.953,7.128 l 106.236,106.236 c 1.969,1.969 4.549,2.953 7.128,2.953 2.58,0 5.159,-0.984 7.128,-2.953 L 509.047,123.445 c 1.89,-1.89 2.953,-4.455 2.953,-7.128 0,-2.674 -1.063,-5.238 -2.953,-7.129 z M 116.317,487.661 24.339,395.683 45.133,374.889 62.794,392.55 c 1.969,1.969 4.549,2.953 7.128,2.953 2.58,0 5.159,-0.984 7.128,-2.953 3.937,-3.937 3.937,-10.32 0,-14.258 l -17.66,-17.661 20.8,-20.8 32.213,32.213 c 1.969,1.969 4.549,2.953 7.128,2.953 2.58,0 5.159,-0.985 7.128,-2.953 3.937,-3.937 3.937,-10.32 0,-14.257 l -32.213,-32.213 20.799,-20.799 17.661,17.661 c 1.969,1.969 4.549,2.953 7.128,2.953 2.579,0 5.159,-0.984 7.128,-2.953 3.937,-3.937 3.937,-10.32 0,-14.258 l -17.661,-17.661 20.795,-20.795 32.217,32.218 c 1.969,1.969 4.549,2.953 7.128,2.953 2.58,0 5.16,-0.985 7.128,-2.953 3.937,-3.937 3.937,-10.32 0,-14.257 l -32.218,-32.218 20.796,-20.796 17.661,17.654 c 1.968,1.968 4.548,2.951 7.126,2.951 2.581,0 5.161,-0.985 7.129,-2.954 3.936,-3.938 3.935,-10.321 -0.003,-14.258 l -17.658,-17.65 20.803,-20.803 32.218,32.218 c 1.969,1.969 4.549,2.953 7.128,2.953 2.579,0 5.16,-0.984 7.128,-2.953 3.937,-3.937 3.937,-10.32 0,-14.258 l -32.218,-32.218 20.794,-20.794 17.661,17.661 c 1.969,1.969 4.549,2.953 7.128,2.953 2.579,0 5.16,-0.985 7.128,-2.953 3.937,-3.937 3.937,-10.32 0,-14.257 l -17.654,-17.661 20.795,-20.795 32.217,32.218 c 1.969,1.969 4.549,2.953 7.128,2.953 2.58,0 5.159,-0.985 7.128,-2.953 3.937,-3.937 3.937,-10.32 0,-14.257 l -32.218,-32.219 20.799,-20.799 17.656,17.656 c 1.969,1.969 4.549,2.953 7.128,2.953 2.579,0 5.159,-0.984 7.128,-2.953 3.937,-3.937 3.937,-10.32 0,-14.258 l -17.654,-17.656 20.8,-20.8 32.218,32.218 c 1.969,1.969 4.549,2.953 7.128,2.953 2.579,0 5.16,-0.985 7.128,-2.953 3.937,-3.937 3.937,-10.32 0,-14.257 l -32.211,-32.218 20.794,-20.794 91.978,91.978 z" />
</svg>
