<svg xmlns="http://www.w3.org/2000/svg" width="100" height="100" viewBox="0 0 100 100">
<defs>
	<marker viewBox="0 0 32 32" refX="16" refY="16" id="DotL" markerWidth="16" markerHeight="16">
		<circle cx="16" cy="16" r="4" style="fill:#fd7000;stroke:#222732;stroke-width:1" />
	</marker>
</defs>
<polygon style="stroke-width:4;stroke-linejoin:round;stroke:#222732;marker-start:url(#DotL);marker-end:url(#DotL);marker-mid:url(#DotL)" points="9,9 91,9 91,91 9,91" fill="#6581d899"/>
<path fill="#fd7000" d="m 62.826129,24.999982 c -3.013224,-4.29e-4 -5.974867,1.118015 -8.261725,3.227908 -3.326337,3.068934 -4.676733,7.729534 -3.50608,12.101647 L 26.526925,64.86094 c -2.0359,2.040995 -2.0359,5.344875 0,7.385882 l 0.612819,0.608663 22.379515,-22.374883 -22.379515,22.379673 0.613457,0.612815 c 2.040997,2.035903 5.344723,2.035903 7.385721,0 L 59.67048,48.941698 c 4.372111,1.170651 9.032559,-0.179747 12.101488,-3.506083 3.068931,-3.326336 4.040471,-8.080295 2.521936,-12.344098 l -6.559327,6.550717 -5.532592,-1.844359 -1.844197,-5.53243 6.550713,-6.559324 c -1.332437,-0.474544 -2.712726,-0.705942 -4.082372,-0.706139 z" />
</svg>
