<svg xmlns="http://www.w3.org/2000/svg" width="32" height="32" viewBox="0 0 58 58">
  <path d="m 32.695654,25.231427 -2.65423,2.65505 -1.057649,1.05752 -1.057236,1.05764 -2.655056,2.65437 9.54607,9.54607 c 1.757088,1.75709 4.606178,1.75709 6.363633,0 l 0.530268,-0.53027 0.530269,-0.53027 c 1.757088,-1.75745 1.757088,-4.60659 0,-6.36404 z" fill="#1d3272" />
  <path d="m 2.4637538,0.30880707 -1.057649,1.05765003 -1.05723635,1.05751 2.64735405,5.83488 3.5024393,0.32262 10.2901772,10.2826099 1.057649,-1.05765 1.057237,-1.05723 L 8.6212485,6.4590171 8.2986312,2.9564371 Z" fill="#6581d8" />
  <path d="m 26.329133,24.174187 -1.057374,1.05751 -1.057512,1.05738 3.712292,3.71256 1.057648,-1.05764 1.057237,-1.05752 z" fill="#6581d8" />
  <path d="m 32.611906,-0.02976293 c -2.59786,-3.7e-4 -5.151249,0.9639 -7.12287,2.78295003 -2.867811,2.64589 -4.032059,6.66404 -3.022777,10.4334699 L 1.3164433,34.336477 c -1.75525773,1.75965 -1.75525773,4.6081 0,6.36776 l 0.5283431,0.52476 19.2945636,-19.29057 -19.2945636,19.2947 0.5288933,0.52834 c 1.7596523,1.75526 4.6079692,1.75526 6.3676212,0 L 29.891254,20.611657 c 3.769428,1.00928 7.787447,-0.15497 10.433334,-3.02278 2.645887,-2.86781 3.483503,-6.96645 2.174293,-10.6424999 l -5.655142,5.6477199 -4.76994,-1.59012 -1.58998,-4.7697999 5.647716,-5.65514003 c -1.148764,-0.40913 -2.338785,-0.60863 -3.519629,-0.6088 z" fill="#fd7000" />
</svg>
