<?xml version="1.0" standalone="no"?>
<!DOCTYPE svg PUBLIC "-//W3C//DTD SVG 20010904//EN"
 "http://www.w3.org/TR/2001/REC-SVG-20010904/DTD/svg10.dtd">
<svg version="1.0" xmlns="http://www.w3.org/2000/svg"
 width="700.000000pt" height="700.000000pt" viewBox="0 0 700.000000 700.000000"
 preserveAspectRatio="xMidYMid meet">
<metadata>
Created by potrace 1.11, written by Peter Selinger 2001-2013
</metadata>
<g transform="translate(0.000000,700.000000) scale(0.100000,-0.100000)"
fill="#000000" stroke="none">
<path d="M1743 6518 c-9 -12 -33 -53 -82 -141 -12 -21 -62 -108 -111 -192 -49
-84 -98 -169 -108 -187 -11 -18 -45 -78 -77 -133 -209 -360 -275 -475 -297
-515 -41 -72 -244 -423 -334 -579 -46 -79 -84 -145 -84 -147 0 -2 -16 -28 -35
-58 -19 -30 -35 -57 -35 -60 0 -3 -19 -38 -43 -78 -62 -105 -107 -181 -273
-468 -134 -234 -160 -279 -216 -378 -10 -18 -25 -44 -34 -57 -15 -23 -8 -35
186 -372 111 -191 212 -366 225 -388 36 -65 125 -219 135 -235 44 -70 250
-434 250 -441 0 -5 5 -9 10 -9 6 0 10 -4 10 -10 0 -5 27 -55 60 -111 33 -55
60 -102 60 -104 0 -3 144 -251 160 -275 6 -8 13 -22 17 -30 4 -8 79 -139 167
-290 87 -151 169 -293 182 -315 12 -22 78 -137 147 -255 l125 -215 1752 0
1753 0 220 380 c236 410 371 642 462 800 32 55 69 120 83 145 14 25 42 74 64
109 21 34 38 65 38 67 0 2 17 32 38 66 21 35 42 70 46 78 4 8 12 24 19 35 13
22 93 161 125 215 44 78 402 698 449 779 10 17 59 103 110 191 l92 161 -301
522 c-166 287 -309 536 -318 552 -10 17 -44 75 -75 130 -62 108 -74 128 -128
220 -19 33 -53 92 -75 130 -22 39 -81 142 -132 230 -51 88 -101 174 -110 190
-9 17 -51 89 -92 160 -137 236 -300 519 -318 550 -9 17 -50 87 -90 155 -41 69
-81 139 -89 157 l-16 32 -1751 1 c-1390 0 -1754 -3 -1761 -12z"/>
</g>
</svg>
