<svg xmlns="http://www.w3.org/2000/svg" width="100" height="100" viewBox="0 0 400 346.41">
<path class ="arrow" d="M100 0 l-50 86.6025 h100 Z" fill="#c61d1d"/>
<path class ="arrow" d="M100 0 h100 l-50 86.6025 Z" fill="#c61d1d"/>
<path class ="arrow" d="M200 0 l-50 86.6025 h100 Z" fill="#c61d1d"/>
<path class ="arrow" d="M200 0 h100 l-50 86.6025 Z" fill="#c61d1d"/>
<path class ="arrow" d="M300 0 l-50 86.6025 h100 Z" fill="#1d3272"/>

<path class ="arrow" d="M50 86.6025 l-50 86.6025 h100 Z" fill="#c61d1d"/>
<path class ="arrow" d="M50 86.6025 h100 l-50 86.6025 Z" fill="#c61d1d"/>
<path class ="arrow" d="M150 86.6025 l-50 86.6025 h100 Z" fill="#c61d1d"/>
<path class ="arrow" d="M150 86.6025 h100 l-50 86.6025 Z" fill="#c61d1d"/>
<path class ="arrow" d="M250 86.6025 l-50 86.6025 h100 Z" fill="#1d3272"/>
<path class ="arrow" d="M250 86.6025 h100 l-50 86.6025 Z" fill="#1d3272"/>
<path class ="arrow" d="M350 86.6025 l-50 86.6025 h100 Z" fill="#1d3272"/>

<path class ="arrow" d="M0 173.205 h100 l-50 86.6025 Z" fill="#4C9A2A"/>
<path class ="arrow" d="M100 173.205 l-50 86.6025 h100 Z" fill="#4C9A2A"/>
<path class ="arrow" d="M100 173.205 h100 l-50 86.6025 Z" fill="#4C9A2A"/>
<path class ="arrow" d="M200 173.205 l-50 86.6025 h100 Z" fill="#4C9A2A"/>
<path class ="arrow" d="M200 173.205 h100 l-50 86.6025 Z" fill="#1d3272"/>
<path class ="arrow" d="M300 173.205 l-50 86.6025 h100 Z" fill="#1d3272"/>
<path class ="arrow" d="M300 173.205 h100 l-50 86.6025 Z" fill="#1d3272"/>

<path class ="arrow" d="M50 259.8075 h100 l-50 86.6025 Z" fill="#4C9A2A"/>
<path class ="arrow" d="M150 259.8075 l-50 86.6025 h100 Z" fill="#4C9A2A"/>
<path class ="arrow" d="M150 259.8075 h100 l-50 86.6025 Z" fill="#4C9A2A"/>
<path class ="arrow" d="M250 259.8075 l-50 86.6025 h100 Z" fill="#4C9A2A"/>
<path class ="arrow" d="M250 259.8075 h100 l-50 86.6025 Z" fill="#1d3272"/>
</svg>