<svg xmlns="http://www.w3.org/2000/svg" width="16" height="16" viewBox="0 0 58 58">
<path d="M 22.409873,20.6625 H 2.7325812 c -0.4528164,0 -0.7820974,-0.429957 -0.6638377,-0.867386 L 6.537998,7.5422517 C 6.6188896,7.2424256 6.8910191,7.0340421 7.2018358,7.0340421 H 26.879128 c 0.452815,0 0.663836,0.4325936 0.663836,0.8673856 L 23.07371,20.154289 C 22.99282,20.454115 22.720689,20.6625 22.409873,20.6625 Z" fill="#fd7000" />
<path d="M 24.143764,3.0773935 H 13.035253 L 10.837115,0 H 2.8059991 C 2.385715,0 2.044564,0.3407114 2.044564,0.7614351 V 19.545845 c 0.030334,8.8e-4 0.060669,0.0026 0.090124,0.0044 L 6.5375584,7.5422517 C 6.61845,7.241986 6.8905795,7.0340421 7.2013962,7.0340421 H 24.9052 V 3.8388285 c 0,-0.4207237 -0.341152,-0.761435 -0.761436,-0.761435 z" fill="#ff9c4d"/>
<rect width="22.831459" height="17.586843" x="30.812506" y="17.626406" ry="0.70136982" fill="#fd7000"/>
<path d="m 31.572546,14.55075 c -0.41974,0 -0.760046,0.339875 -0.760046,0.760054 v 3.016883 c 0,-0.194286 0.07836,-0.36904 0.205164,-0.495816 0.126775,-0.126774 0.301539,-0.205169 0.495826,-0.205169 h 21.377752 c -0.0036,-3.3e-5 -0.0052,-0.0025 -0.0072,-0.0025 h -11.09509 l -2.194659,-3.073019 z" fill="#ff9c4d" />
<rect width="22.831432" height="17.586821" x="30.8125" y="40.412918" ry="0.70136899" fill="#fd7000" />
<path d="m 31.572549,37.337268 c -0.419742,0 -0.760049,0.339871 -0.760049,0.760049 v 3.01688 c 0,-0.194285 0.0784,-0.369038 0.205166,-0.495815 0.126773,-0.126772 0.301537,-0.205169 0.495819,-0.205169 h 21.377729 c -0.0032,-3.3e-5 -0.005,-0.003 -0.0073,-0.003 h -11.09498 l -2.194658,-3.072997 z" fill="#ff9c4d" />
<path d="M 12.013188,20.6625 V 48.978305" stroke="#646464" stroke-width="1.81250012px" />
<path d="M 30.8125,48.978105 H 11.106938" stroke="#646464" stroke-width="1.81250012px" />
<path d="M 30.8125,27.437902 H 11.106938" stroke="#646464" stroke-width="1.81250012px" />
</svg>
